<svg xmlns="http://www.w3.org/2000/svg" width="40" height="40" viewBox="0 0 40 40" role="img" aria-label="DottoUI">
  <!-- Accent tile with DottoUI stepped (pixel-corner) corners -->
  <path
    fill="#84A2D3"
    d="M0 8 L4 8 L4 4 L8 4 L8 0 L32 0 L32 4 L36 4 L36 8 L40 8 L40 32 L36 32 L36 36 L32 36 L32 40 L8 40 L8 36 L4 36 L4 32 L0 32 Z"
  />
  <!-- Navy diamond glyph (5x5 pixel grid, unit 6, centered) -->
  <g fill="#1D304C">
    <rect x="17" y="5" width="6" height="6" />
    <rect x="11" y="11" width="6" height="6" />
    <rect x="17" y="11" width="6" height="6" />
    <rect x="23" y="11" width="6" height="6" />
    <rect x="5" y="17" width="6" height="6" />
    <rect x="11" y="17" width="6" height="6" />
    <rect x="17" y="17" width="6" height="6" />
    <rect x="23" y="17" width="6" height="6" />
    <rect x="29" y="17" width="6" height="6" />
    <rect x="11" y="23" width="6" height="6" />
    <rect x="17" y="23" width="6" height="6" />
    <rect x="23" y="23" width="6" height="6" />
    <rect x="17" y="29" width="6" height="6" />
  </g>
</svg>
